<?xml version="1.0" standalone="no"?>
<!DOCTYPE svg PUBLIC "-//W3C//DTD SVG 20010904//EN"
 "http://www.w3.org/TR/2001/REC-SVG-20010904/DTD/svg10.dtd">
<svg version="1.0" xmlns="http://www.w3.org/2000/svg"
 width="200.000000pt" height="200.000000pt" viewBox="0 0 200.000000 200.000000"
 preserveAspectRatio="xMidYMid meet">

<g transform="translate(0.000000,200.000000) scale(0.100000,-0.100000)"
fill="#000000" stroke="none">
<path d="M860 1901 c-463 -65 -746 -537 -580 -969 121 -313 449 -505 777 -452
292 46 519 257 594 551 19 75 17 248 -4 328 -10 36 -19 66 -21 68 -2 2 -19 -3
-39 -12 l-35 -15 15 -57 c21 -78 21 -230 -1 -312 -118 -442 -635 -621 -1002
-349 -102 76 -174 179 -220 313 -23 67 -27 97 -27 185 -1 189 53 321 188 456
88 89 177 141 295 170 97 25 272 15 365 -19 38 -14 70 -25 71 -24 1 1 9 16 18
34 l16 32 -30 16 c-82 43 -273 70 -380 56z"/>
<path d="M1421 1855 c-51 -16 -107 -66 -127 -112 -39 -91 -3 -206 81 -258 144
-89 336 33 311 198 -20 128 -146 210 -265 172z m145 -134 c47 -21 61 -38 46
-53 -7 -7 -24 -4 -54 11 -56 27 -100 27 -156 0 -34 -17 -46 -19 -55 -10 -9 10
-7 16 8 28 60 46 142 55 211 24z m-18 -85 c24 -24 3 -40 -32 -25 -22 10 -34
10 -62 0 -56 -20 -75 16 -20 40 29 12 96 4 114 -15z m-44 -65 c9 -15 -23 -36
-36 -23 -5 5 -7 15 -4 21 9 13 33 14 40 2z"/>
<path d="M802 1745 c-94 -26 -164 -73 -183 -123 -12 -31 11 -74 55 -101 34
-22 116 -104 116 -118 0 -5 4 -14 9 -21 7 -11 16 -10 49 7 29 15 60 21 102 21
68 0 108 -16 157 -62 l32 -31 15 38 c46 109 59 200 37 258 -16 42 -74 99 -121
120 -59 26 -196 32 -268 12z"/>
<path d="M508 1523 c-65 -86 -108 -199 -108 -282 l0 -35 30 29 c17 16 35 47
41 70 14 59 40 113 76 167 29 42 31 50 21 73 -6 14 -14 25 -18 25 -3 0 -22
-21 -42 -47z"/>
<path d="M621 1416 c-17 -25 -36 -57 -41 -71 -9 -23 -8 -26 6 -21 8 3 23 6 33
6 19 0 84 86 76 101 -4 5 -15 13 -25 19 -16 9 -24 3 -49 -34z"/>
<path d="M1243 1415 c-11 -34 -6 -50 34 -124 1 -2 14 0 29 3 22 6 25 11 19 34
-5 23 -62 122 -69 122 -2 0 -7 -16 -13 -35z"/>
<path d="M1400 1396 c0 -3 4 -16 10 -30 7 -20 16 -26 40 -26 34 0 40 19 14 44
-14 14 -64 23 -64 12z"/>
<path d="M897 1346 c-50 -18 -76 -42 -98 -91 -25 -54 -24 -93 4 -145 26 -50
90 -90 144 -90 80 0 157 65 168 143 8 50 -16 118 -53 150 -22 20 -86 46 -112
46 -8 0 -32 -6 -53 -13z m125 -84 c35 -32 43 -71 24 -115 -15 -37 -58 -67 -96
-67 -34 0 -79 28 -96 61 -21 41 -12 88 24 121 46 44 97 44 144 0z"/>
<path d="M915 1220 c-22 -24 -13 -66 15 -75 54 -17 93 42 50 77 -28 23 -43 23
-65 -2z"/>
<path d="M670 1278 c-67 -9 -160 -46 -193 -76 -57 -51 -75 -161 -42 -252 47
-132 192 -269 286 -270 14 0 35 9 47 20 20 19 25 34 37 132 3 26 17 68 30 95
14 26 25 49 25 50 0 0 -16 10 -35 22 -73 43 -118 156 -95 241 6 23 10 43 8 44
-2 1 -32 -2 -68 -6z"/>
<path d="M1350 1250 c-46 -21 -81 -30 -120 -30 l-55 0 -1 -44 c-3 -93 -74
-182 -166 -206 l-39 -11 33 -46 c74 -103 176 -161 258 -147 49 9 111 46 150
91 100 114 144 339 79 404 -26 26 -63 24 -139 -11z"/>
<path d="M865 830 c-11 -33 3 -40 81 -40 l75 0 -21 30 c-19 27 -27 30 -75 30
-45 0 -55 -3 -60 -20z"/>
<path d="M1065 708 c-16 -5 -73 -10 -124 -10 -84 -1 -97 -3 -112 -22 -12 -14
-14 -23 -6 -28 23 -14 145 -19 211 -8 70 11 166 46 166 60 0 7 -62 20 -90 19
-8 0 -28 -5 -45 -11z"/>
<path d="M815 398 c-2 -7 -9 -32 -15 -55 -12 -49 -1 -45 -190 -71 -75 -11
-149 -25 -165 -33 -31 -15 -60 -62 -71 -117 l-7 -32 583 0 583 0 -6 29 c-12
60 -36 100 -68 117 -18 9 -102 26 -187 39 -100 14 -157 27 -162 36 -5 7 -12
31 -15 51 -8 47 -13 50 -57 37 l-36 -9 13 -48 c27 -105 47 -119 203 -142 l117
-18 -385 0 -385 0 117 18 c128 19 163 35 183 83 18 45 28 104 18 109 -24 14
-64 18 -68 6z"/>
</g>
</svg>
